<svg xmlns="http://www.w3.org/2000/svg" viewBox="0 0 1000 1000">
  <path d="M 860.00 500.00 L 860.00 500.91 L 859.99 501.81 L 859.97 502.72 L 859.95 503.62 L 859.91 504.52 L 859.88 505.43 L 859.83 506.33 L 859.78 507.24 L 859.72 508.14 L 859.66 509.04 L 859.59 509.94 L 859.51 510.85 L 859.42 511.75 L 859.33 512.65 L 859.23 513.54 L 859.13 514.44 L 859.02 515.34 L 858.90 516.24 L 858.77 517.13 L 858.64 518.03 L 858.50 518.92 L 858.35 519.81 L 858.20 520.70 L 858.04 521.59 L 857.88 522.48 L 857.70 523.37 L 857.53 524.25 L 857.34 525.14 L 857.15 526.02 L 856.95 526.90 L 856.74 527.78 L 856.53 528.65 L 856.31 529.53 L 856.09 530.40 L 855.86 531.28 L 855.62 532.14 L 855.38 533.01 L 855.13 533.88 L 854.87 534.74 L 854.61 535.60 L 854.34 536.46 L 854.06 537.32 L 853.78 538.17 L 853.49 539.03 L 853.20 539.88 L 852.90 540.72 L 852.59 541.57 L 852.28 542.41 L 851.96 543.25 L 851.63 544.09 L 851.30 544.92 L 850.96 545.76 L 850.62 546.58 L 850.27 547.41 L 849.91 548.23 L 849.55 549.05 L 849.19 549.87 L 848.81 550.69 L 848.43 551.50 L 848.05 552.31 L 847.66 553.11 L 847.26 553.91 L 846.86 554.71 L 846.46 555.51 L 846.04 556.30 L 845.62 557.09 L 845.20 557.88 L 844.77 558.66 L 844.34 559.44 L 843.90 560.21 L 843.45 560.99 L 843.00 561.75 L 842.54 562.52 L 842.08 563.28 L 841.61 564.04 L 841.14 564.79 L 840.66 565.54 L 840.18 566.29 L 839.70 567.03 L 839.20 567.77 L 838.71 568.50 L 838.20 569.23 L 837.70 569.96 L 837.18 570.68 L 836.67 571.40 L 836.14 572.12 L 835.62 572.83 L 835.09 573.54 L 834.55 574.24 L 834.01 574.94 L 833.46 575.63 L 832.91 576.32 L 832.36 577.01 L 831.80 577.69 L 831.24 578.37 L 830.67 579.04 L 830.10 579.71 L 829.52 580.38 L 828.94 581.04 L 828.36 581.69 L 827.77 582.34 L 827.18 582.99 L 826.58 583.63 L 825.98 584.27 L 825.37 584.90 L 824.76 585.53 L 824.15 586.16 L 823.53 586.78 L 822.91 587.39 L 822.29 588.00 L 821.66 588.61 L 821.03 589.21 L 820.39 589.81 L 819.75 590.40 L 819.11 590.99 L 818.47 591.57 L 817.82 592.15 L 817.16 592.72 L 816.51 593.29 L 815.85 593.86 L 815.19 594.42 L 814.52 594.97 L 813.85 595.52 L 813.18 596.07 L 812.50 596.61 L 811.82 597.14 L 811.14 597.67 L 810.46 598.20 L 809.77 598.72 L 809.08 599.24 L 808.39 599.75 L 807.69 600.25 L 806.99 600.75 L 806.29 601.25 L 805.58 601.74 L 804.88 602.23 L 804.17 602.71 L 803.46 603.19 L 802.74 603.66 L 802.03 604.13 L 801.31 604.59 L 800.58 605.05 L 799.86 605.50 L 799.13 605.95 L 798.40 606.40 L 797.67 606.83 L 796.94 607.27 L 796.21 607.70 L 795.47 608.12 L 794.73 608.54 L 793.99 608.95 L 793.24 609.36 L 792.50 609.77 L 791.75 610.16 L 791.00 610.56 L 790.25 610.95 L 789.50 611.33 L 788.74 611.71 L 787.99 612.09 L 787.23 612.46 L 786.47 612.82 L 785.71 613.18 L 784.95 613.54 L 784.18 613.89 L 783.42 614.23 L 782.65 614.58 L 781.88 614.91 L 781.12 615.24 L 780.34 615.57 L 779.57 615.89 L 778.80 616.21 L 778.02 616.52 L 777.25 616.83 L 776.47 617.13 L 775.69 617.43 L 774.91 617.72 L 774.13 618.01 L 773.35 618.29 L 772.57 618.57 L 771.79 618.85 L 771.00 619.12 L 770.22 619.38 L 769.43 619.64 L 768.65 619.90 L 767.86 620.15 L 767.07 620.39 L 766.28 620.64 L 765.49 620.87 L 764.70 621.11 L 763.91 621.33 L 763.12 621.56 L 762.33 621.78 L 761.54 621.99 L 760.75 622.20 L 759.95 622.41 L 759.16 622.61 L 758.37 622.80 L 757.57 623.00 L 756.78 623.18 L 755.98 623.37 L 755.19 623.54 L 754.39 623.72 L 753.60 623.89 L 752.80 624.05 L 752.00 624.21 L 751.21 624.37 L 750.41 624.52 L 749.61 624.67 L 748.82 624.82 L 748.02 624.95 L 747.22 625.09 L 746.43 625.22 L 745.63 625.35 L 744.84 625.47 L 744.04 625.59 L 743.24 625.70 L 742.45 625.81 L 741.65 625.92 L 740.85 626.02 L 740.06 626.12 L 739.26 626.21 L 738.47 626.30 L 737.67 626.39 L 736.88 626.47 L 736.08 626.55 L 735.29 626.62 L 734.50 626.69 L 733.70 626.75 L 732.91 626.82 L 732.12 626.87 L 731.33 626.93 L 730.53 626.98 L 729.74 627.02 L 728.95 627.06 L 728.16 627.10 L 727.37 627.14 L 726.58 627.17 L 725.79 627.19 L 725.01 627.22 L 724.22 627.24 L 723.43 627.25 L 722.65 627.27 L 721.86 627.27 L 721.08 627.28 L 720.29 627.28 L 719.51 627.28 L 718.73 627.27 L 717.94 627.26 L 717.16 627.25 L 716.38 627.23 L 715.60 627.21 L 714.82 627.19 L 714.05 627.16 L 713.27 627.13 L 712.49 627.09 L 711.72 627.06 L 710.94 627.02 L 710.17 626.97 L 709.40 626.92 L 708.62 626.87 L 707.85 626.82 L 707.08 626.76 L 706.31 626.70 L 705.54 626.63 L 704.78 626.57 L 704.01 626.50 L 703.25 626.42 L 702.48 626.34 L 701.72 626.26 L 700.96 626.18 L 700.19 626.09 L 699.43 626.00 L 698.68 625.91 L 697.92 625.82 L 697.16 625.72 L 696.40 625.61 L 695.65 625.51 L 694.90 625.40 L 694.14 625.29 L 693.39 625.18 L 692.64 625.06 L 691.89 624.94 L 691.14 624.82 L 690.40 624.69 L 689.65 624.56 L 688.91 624.43 L 688.16 624.30 L 687.42 624.16 L 686.68 624.02 L 685.94 623.88 L 685.20 623.73 L 684.46 623.58 L 683.73 623.43 L 682.99 623.28 L 682.26 623.12 L 681.52 622.96 L 680.79 622.80 L 680.06 622.64 L 679.33 622.47 L 678.61 622.30 L 677.88 622.13 L 677.15 621.96 L 676.43 621.78 L 675.71 621.60 L 674.99 621.42 L 674.27 621.23 L 673.55 621.05 L 672.83 620.86 L 672.11 620.67 L 671.40 620.47 L 670.68 620.27 L 669.97 620.08 L 669.26 619.87 L 668.55 619.67 L 667.84 619.46 L 667.14 619.26 L 666.43 619.04 L 665.73 618.83 L 665.02 618.62 L 664.32 618.40 L 663.62 618.18 L 662.92 617.96 L 662.22 617.73 L 661.53 617.51 L 660.83 617.28 L 660.14 617.05 L 659.45 616.81 L 658.76 616.58 L 658.07 616.34 L 657.38 616.10 L 656.69 615.86 L 656.01 615.62 L 655.32 615.37 L 654.64 615.13 L 653.96 614.88 L 653.28 614.63 L 652.60 614.37 L 651.92 614.12 L 651.24 613.86 L 650.57 613.60 L 649.90 613.34 L 649.22 613.08 L 648.55 612.81 L 647.88 612.54 L 647.22 612.28 L 646.55 612.01 L 645.88 611.73 L 645.22 611.46 L 644.56 611.18 L 643.90 610.91 L 643.24 610.63 L 642.58 610.35 L 641.92 610.06 L 641.26 609.78 L 640.61 609.49 L 639.96 609.20 L 639.30 608.91 L 638.65 608.62 L 638.01 608.33 L 637.36 608.03 L 636.71 607.74 L 636.07 607.44 L 635.42 607.14 L 634.78 606.84 L 634.14 606.53 L 633.50 606.23 L 632.86 605.92 L 632.22 605.62 L 631.59 605.31 L 630.95 605.00 L 630.32 604.68 L 629.69 604.37 L 629.06 604.06 L 628.43 603.74 L 627.80 603.42 L 627.17 603.10 L 626.55 602.78 L 625.92 602.46 L 625.30 602.13 L 624.68 601.81 L 624.06 601.48 L 623.44 601.15 L 622.82 600.83 L 622.21 600.49 L 621.59 600.16 L 620.98 599.83 L 620.37 599.49 L 619.76 599.16 L 619.15 598.82 L 618.54 598.48 L 617.93 598.14 L 617.32 597.80 L 616.72 597.46 L 616.12 597.12 L 615.51 596.77 L 614.91 596.42 L 614.31 596.08 L 613.71 595.73 L 613.12 595.38 L 612.52 595.03 L 611.93 594.68 L 611.33 594.32 L 610.74 593.97 L 610.15 593.61 L 609.56 593.26 L 608.97 592.90 L 608.38 592.54 L 607.79 592.18 L 607.21 591.82 L 606.63 591.46 L 606.04 591.09 L 605.46 590.73 L 604.88 590.36 L 604.30 590.00 L 603.72 589.63 L 603.15 589.26 L 602.57 588.89 L 601.99 588.52 L 601.42 588.15 L 600.85 587.78 L 600.28 587.40 L 599.71 587.03 L 599.14 586.65 L 598.57 586.28 L 598.00 585.90 L 597.44 585.52 L 596.87 585.14 L 596.31 584.76 L 595.75 584.38 L 595.19 584.00 L 594.63 583.62 L 594.07 583.23 L 593.51 582.85 L 592.95 582.46 L 592.40 582.08 L 591.84 581.69 L 591.29 581.30 L 590.73 580.91 L 590.18 580.53 L 589.63 580.13 L 589.08 579.74 L 588.53 579.35 L 587.99 578.96 L 587.44 578.56 L 586.89 578.17 L 586.35 577.78 L 585.81 577.38 L 585.26 576.98 L 584.72 576.59 L 584.18 576.19 L 583.64 575.79 L 583.10 575.39 L 582.57 574.99 L 582.03 574.59 L 581.50 574.18 L 580.96 573.78 L 580.43 573.38 L 579.89 572.97 L 579.36 572.57 L 578.83 572.17 L 578.30 571.76 L 577.77 571.35 L 577.25 570.95 L 576.72 570.54 L 576.19 570.13 L 575.67 569.72 L 575.14 569.31 L 574.62 568.90 L 574.10 568.49 L 573.58 568.08 L 573.05 567.66 L 572.53 567.25 L 572.02 566.84 L 571.50 566.42 L 570.98 566.01 L 570.46 565.59 L 569.95 565.18 L 569.43 564.76 L 568.92 564.34 L 568.41 563.93 L 567.89 563.51 L 567.38 563.09 L 566.87 562.67 L 566.36 562.25 L 565.85 561.83 L 565.35 561.41 L 564.84 560.99 L 564.33 560.57 L 563.83 560.14 L 563.32 559.72 L 562.82 559.30 L 562.31 558.87 L 561.81 558.45 L 561.31 558.03 L 560.81 557.60 L 560.31 557.17 L 559.81 556.75 L 559.31 556.32 L 558.81 555.90 L 558.31 555.47 L 557.82 555.04 L 557.32 554.61 L 556.82 554.18 L 556.33 553.75 L 555.84 553.32 L 555.34 552.89 L 554.85 552.46 L 554.36 552.03 L 553.87 551.60 L 553.38 551.17 L 552.89 550.74 L 552.40 550.30 L 551.91 549.87 L 551.42 549.44 L 550.93 549.01 L 550.45 548.57 L 549.96 548.14 L 549.47 547.70 L 548.99 547.27 L 548.50 546.83 L 548.02 546.40 L 547.54 545.96 L 547.05 545.52 L 546.57 545.09 L 546.09 544.65 L 545.61 544.21 L 545.13 543.77 L 544.65 543.34 L 544.17 542.90 L 543.69 542.46 L 543.22 542.02 L 542.74 541.58 L 542.26 541.14 L 541.78 540.70 L 541.31 540.26 L 540.83 539.82 L 540.36 539.38 L 539.88 538.94 L 539.41 538.50 L 538.94 538.06 L 538.46 537.61 L 537.99 537.17 L 537.52 536.73 L 537.05 536.29 L 536.58 535.84 L 536.11 535.40 L 535.64 534.96 L 535.17 534.51 L 534.70 534.07 L 534.23 533.63 L 533.76 533.18 L 533.29 532.74 L 532.82 532.29 L 532.36 531.85 L 531.89 531.40 L 531.42 530.96 L 530.96 530.51 L 530.49 530.06 L 530.03 529.62 L 529.56 529.17 L 529.10 528.73 L 528.63 528.28 L 528.17 527.83 L 527.71 527.38 L 527.24 526.94 L 526.78 526.49 L 526.32 526.04 L 525.86 525.59 L 525.40 525.15 L 524.93 524.70 L 524.47 524.25 L 524.01 523.80 L 523.55 523.35 L 523.09 522.90 L 522.63 522.46 L 522.17 522.01 L 521.71 521.56 L 521.26 521.11 L 520.80 520.66 L 520.34 520.21 L 519.88 519.76 L 519.42 519.31 L 518.96 518.86 L 518.51 518.41 L 518.05 517.96 L 517.59 517.51 L 517.14 517.06 L 516.68 516.61 L 516.22 516.16 L 515.77 515.71 L 515.31 515.26 L 514.86 514.80 L 514.40 514.35 L 513.94 513.90 L 513.49 513.45 L 513.03 513.00 L 512.58 512.55 L 512.12 512.10 L 511.67 511.65 L 511.22 511.19 L 510.76 510.74 L 510.31 510.29 L 509.85 509.84 L 509.40 509.39 L 508.95 508.93 L 508.49 508.48 L 508.04 508.03 L 507.59 507.58 L 507.13 507.13 L 506.68 506.67 L 506.23 506.22 L 505.77 505.77 L 505.32 505.32 L 504.87 504.86 L 504.41 504.41 L 503.96 503.96 L 503.51 503.51 L 503.06 503.05 L 502.60 502.60 L 502.15 502.15 L 501.70 501.70 L 501.24 501.24 L 500.79 500.79 L 500.34 500.34 L 499.89 499.89 L 499.43 499.43 L 498.98 498.98 L 498.53 498.53 L 498.08 498.08 L 497.62 497.62 L 497.17 497.17 L 496.72 496.72 L 496.27 496.27 L 495.81 495.81 L 495.36 495.36 L 494.91 494.91 L 494.45 494.46 L 494.00 494.00 L 493.55 493.55 L 493.09 493.10 L 492.64 492.65 L 492.19 492.20 L 491.73 491.74 L 491.28 491.29 L 490.83 490.84 L 490.37 490.39 L 489.92 489.94 L 489.47 489.48 L 489.01 489.03 L 488.56 488.58 L 488.10 488.13 L 487.65 487.68 L 487.19 487.23 L 486.74 486.77 L 486.28 486.32 L 485.83 485.87 L 485.37 485.42 L 484.92 484.97 L 484.46 484.52 L 484.01 484.07 L 483.55 483.62 L 483.09 483.17 L 482.64 482.72 L 482.18 482.27 L 481.72 481.82 L 481.26 481.37 L 480.81 480.92 L 480.35 480.47 L 479.89 480.02 L 479.43 479.57 L 478.97 479.12 L 478.52 478.67 L 478.06 478.22 L 477.60 477.77 L 477.14 477.32 L 476.68 476.87 L 476.22 476.42 L 475.76 475.97 L 475.30 475.53 L 474.83 475.08 L 474.37 474.63 L 473.91 474.18 L 473.45 473.73 L 472.99 473.29 L 472.52 472.84 L 472.06 472.39 L 471.60 471.94 L 471.13 471.50 L 470.67 471.05 L 470.20 470.60 L 469.74 470.16 L 469.27 469.71 L 468.81 469.27 L 468.34 468.82 L 467.88 468.38 L 467.41 467.93 L 466.94 467.49 L 466.47 467.04 L 466.01 466.60 L 465.54 466.15 L 465.07 465.71 L 464.60 465.26 L 464.13 464.82 L 463.66 464.38 L 463.19 463.93 L 462.72 463.49 L 462.24 463.05 L 461.77 462.61 L 461.30 462.17 L 460.83 461.72 L 460.35 461.28 L 459.88 460.84 L 459.40 460.40 L 458.93 459.96 L 458.45 459.52 L 457.98 459.08 L 457.50 458.64 L 457.02 458.20 L 456.55 457.76 L 456.07 457.32 L 455.59 456.88 L 455.11 456.44 L 454.63 456.01 L 454.15 455.57 L 453.67 455.13 L 453.19 454.69 L 452.70 454.26 L 452.22 453.82 L 451.74 453.39 L 451.25 452.95 L 450.77 452.52 L 450.28 452.08 L 449.80 451.65 L 449.31 451.21 L 448.82 450.78 L 448.34 450.34 L 447.85 449.91 L 447.36 449.48 L 446.87 449.05 L 446.38 448.61 L 445.89 448.18 L 445.40 447.75 L 444.90 447.32 L 444.41 446.89 L 443.92 446.46 L 443.42 446.03 L 442.93 445.60 L 442.43 445.17 L 441.94 444.75 L 441.44 444.32 L 440.94 443.89 L 440.44 443.46 L 439.94 443.04 L 439.44 442.61 L 438.94 442.19 L 438.44 441.76 L 437.94 441.34 L 437.43 440.91 L 436.93 440.49 L 436.43 440.07 L 435.92 439.64 L 435.41 439.22 L 434.91 438.80 L 434.40 438.38 L 433.89 437.96 L 433.38 437.54 L 432.87 437.12 L 432.36 436.70 L 431.85 436.28 L 431.34 435.86 L 430.82 435.45 L 430.31 435.03 L 429.79 434.61 L 429.28 434.20 L 428.76 433.78 L 428.24 433.37 L 427.72 432.96 L 427.21 432.54 L 426.69 432.13 L 426.16 431.72 L 425.64 431.31 L 425.12 430.90 L 424.60 430.49 L 424.07 430.08 L 423.54 429.67 L 423.02 429.26 L 422.49 428.85 L 421.96 428.44 L 421.43 428.04 L 420.90 427.63 L 420.37 427.23 L 419.84 426.82 L 419.31 426.42 L 418.77 426.02 L 418.24 425.61 L 417.70 425.21 L 417.16 424.81 L 416.63 424.41 L 416.09 424.01 L 415.55 423.61 L 415.01 423.22 L 414.46 422.82 L 413.92 422.42 L 413.38 422.03 L 412.83 421.63 L 412.29 421.24 L 411.74 420.85 L 411.19 420.45 L 410.64 420.06 L 410.09 419.67 L 409.54 419.28 L 408.99 418.89 L 408.44 418.50 L 407.88 418.12 L 407.33 417.73 L 406.77 417.34 L 406.21 416.96 L 405.65 416.57 L 405.09 416.19 L 404.53 415.81 L 403.97 415.43 L 403.41 415.05 L 402.84 414.67 L 402.28 414.29 L 401.71 413.91 L 401.15 413.53 L 400.58 413.16 L 400.01 412.78 L 399.44 412.41 L 398.87 412.04 L 398.29 411.66 L 397.72 411.29 L 397.14 410.92 L 396.57 410.55 L 395.99 410.19 L 395.41 409.82 L 394.83 409.45 L 394.25 409.09 L 393.67 408.72 L 393.08 408.36 L 392.50 408.00 L 391.91 407.64 L 391.33 407.28 L 390.74 406.92 L 390.15 406.57 L 389.56 406.21 L 388.97 405.85 L 388.37 405.50 L 387.78 405.15 L 387.18 404.80 L 386.59 404.45 L 385.99 404.10 L 385.39 403.75 L 384.79 403.40 L 384.19 403.06 L 383.58 402.71 L 382.98 402.37 L 382.37 402.03 L 381.77 401.69 L 381.16 401.35 L 380.55 401.01 L 379.94 400.67 L 379.33 400.34 L 378.71 400.00 L 378.10 399.67 L 377.48 399.34 L 376.87 399.01 L 376.25 398.68 L 375.63 398.35 L 375.01 398.03 L 374.39 397.70 L 373.76 397.38 L 373.14 397.06 L 372.51 396.74 L 371.89 396.42 L 371.26 396.10 L 370.63 395.79 L 370.00 395.47 L 369.36 395.16 L 368.73 394.85 L 368.09 394.54 L 367.46 394.23 L 366.82 393.92 L 366.18 393.62 L 365.54 393.31 L 364.90 393.01 L 364.26 392.71 L 363.61 392.41 L 362.97 392.11 L 362.32 391.82 L 361.67 391.53 L 361.02 391.23 L 360.37 390.94 L 359.72 390.65 L 359.06 390.37 L 358.41 390.08 L 357.75 389.80 L 357.09 389.51 L 356.43 389.23 L 355.77 388.96 L 355.11 388.68 L 354.45 388.40 L 353.78 388.13 L 353.12 387.86 L 352.45 387.59 L 351.78 387.32 L 351.11 387.06 L 350.44 386.79 L 349.77 386.53 L 349.09 386.27 L 348.42 386.01 L 347.74 385.76 L 347.06 385.50 L 346.38 385.25 L 345.70 385.00 L 345.02 384.75 L 344.34 384.50 L 343.65 384.26 L 342.97 384.02 L 342.28 383.78 L 341.59 383.54 L 340.90 383.30 L 340.21 383.07 L 339.51 382.84 L 338.82 382.61 L 338.12 382.38 L 337.43 382.15 L 336.73 381.93 L 336.03 381.71 L 335.33 381.49 L 334.63 381.28 L 333.92 381.06 L 333.22 380.85 L 332.51 380.64 L 331.80 380.43 L 331.09 380.23 L 330.38 380.03 L 329.67 379.82 L 328.96 379.63 L 328.24 379.43 L 327.53 379.24 L 326.81 379.05 L 326.09 378.86 L 325.37 378.67 L 324.65 378.49 L 323.93 378.31 L 323.21 378.13 L 322.48 377.96 L 321.76 377.78 L 321.03 377.61 L 320.30 377.44 L 319.57 377.28 L 318.84 377.12 L 318.11 376.96 L 317.38 376.80 L 316.64 376.64 L 315.91 376.49 L 315.17 376.34 L 314.43 376.19 L 313.69 376.05 L 312.95 375.91 L 312.21 375.77 L 311.47 375.64 L 310.72 375.50 L 309.98 375.37 L 309.23 375.25 L 308.48 375.12 L 307.73 375.00 L 306.98 374.88 L 306.23 374.77 L 305.48 374.65 L 304.73 374.54 L 303.97 374.44 L 303.22 374.33 L 302.46 374.23 L 301.70 374.14 L 300.95 374.04 L 300.19 373.95 L 299.42 373.86 L 298.66 373.78 L 297.90 373.70 L 297.14 373.62 L 296.37 373.54 L 295.61 373.47 L 294.84 373.40 L 294.07 373.33 L 293.30 373.27 L 292.53 373.21 L 291.76 373.15 L 290.99 373.10 L 290.22 373.05 L 289.44 373.01 L 288.67 372.96 L 287.90 372.92 L 287.12 372.89 L 286.34 372.86 L 285.56 372.83 L 284.79 372.80 L 284.01 372.78 L 283.23 372.76 L 282.45 372.75 L 281.66 372.73 L 280.88 372.73 L 280.10 372.72 L 279.32 372.72 L 278.53 372.72 L 277.75 372.73 L 276.96 372.74 L 276.17 372.75 L 275.39 372.77 L 274.60 372.79 L 273.81 372.82 L 273.02 372.85 L 272.23 372.88 L 271.44 372.92 L 270.65 372.96 L 269.86 373.00 L 269.07 373.05 L 268.28 373.10 L 267.49 373.16 L 266.69 373.22 L 265.90 373.28 L 265.11 373.35 L 264.31 373.42 L 263.52 373.49 L 262.72 373.57 L 261.93 373.66 L 261.13 373.74 L 260.34 373.83 L 259.54 373.93 L 258.75 374.03 L 257.95 374.13 L 257.16 374.24 L 256.36 374.35 L 255.56 374.47 L 254.77 374.59 L 253.97 374.72 L 253.17 374.84 L 252.38 374.98 L 251.58 375.11 L 250.78 375.26 L 249.99 375.40 L 249.19 375.55 L 248.39 375.71 L 247.60 375.87 L 246.80 376.03 L 246.01 376.20 L 245.21 376.37 L 244.42 376.54 L 243.62 376.73 L 242.83 376.91 L 242.03 377.10 L 241.24 377.29 L 240.44 377.49 L 239.65 377.70 L 238.86 377.90 L 238.06 378.12 L 237.27 378.33 L 236.48 378.55 L 235.69 378.78 L 234.90 379.01 L 234.11 379.24 L 233.32 379.48 L 232.53 379.73 L 231.75 379.98 L 230.96 380.23 L 230.17 380.49 L 229.39 380.75 L 228.60 381.02 L 227.82 381.29 L 227.04 381.57 L 226.26 381.85 L 225.48 382.13 L 224.70 382.42 L 223.92 382.72 L 223.14 383.02 L 222.36 383.33 L 221.59 383.64 L 220.81 383.95 L 220.04 384.27 L 219.27 384.59 L 218.50 384.92 L 217.73 385.26 L 216.96 385.59 L 216.20 385.94 L 215.43 386.29 L 214.67 386.64 L 213.91 387.00 L 213.15 387.36 L 212.39 387.73 L 211.63 388.10 L 210.88 388.48 L 210.12 388.86 L 209.37 389.25 L 208.62 389.64 L 207.87 390.03 L 207.13 390.44 L 206.38 390.84 L 205.64 391.25 L 204.90 391.67 L 204.16 392.09 L 203.43 392.52 L 202.69 392.95 L 201.96 393.38 L 201.23 393.83 L 200.50 394.27 L 199.78 394.72 L 199.05 395.18 L 198.33 395.64 L 197.62 396.10 L 196.90 396.57 L 196.19 397.05 L 195.48 397.53 L 194.77 398.01 L 194.06 398.50 L 193.36 399.00 L 192.66 399.50 L 191.96 400.00 L 191.27 400.51 L 190.58 401.02 L 189.89 401.54 L 189.20 402.06 L 188.52 402.59 L 187.84 403.13 L 187.16 403.66 L 186.49 404.21 L 185.81 404.75 L 185.15 405.31 L 184.48 405.86 L 183.82 406.43 L 183.16 406.99 L 182.51 407.56 L 181.86 408.14 L 181.21 408.72 L 180.57 409.30 L 179.93 409.89 L 179.29 410.49 L 178.65 411.09 L 178.02 411.69 L 177.40 412.30 L 176.78 412.91 L 176.16 413.53 L 175.54 414.15 L 174.93 414.78 L 174.32 415.41 L 173.72 416.05 L 173.12 416.69 L 172.53 417.33 L 171.94 417.98 L 171.35 418.64 L 170.77 419.29 L 170.19 419.96 L 169.61 420.62 L 169.05 421.29 L 168.48 421.97 L 167.92 422.65 L 167.36 423.33 L 166.81 424.02 L 166.26 424.71 L 165.72 425.41 L 165.18 426.11 L 164.65 426.82 L 164.12 427.53 L 163.59 428.24 L 163.07 428.96 L 162.56 429.68 L 162.05 430.40 L 161.55 431.13 L 161.05 431.86 L 160.55 432.60 L 160.06 433.34 L 159.58 434.09 L 159.10 434.83 L 158.62 435.59 L 158.15 436.34 L 157.69 437.10 L 157.23 437.86 L 156.77 438.63 L 156.33 439.40 L 155.88 440.17 L 155.45 440.95 L 155.01 441.73 L 154.59 442.52 L 154.17 443.30 L 153.75 444.09 L 153.34 444.89 L 152.94 445.69 L 152.54 446.49 L 152.14 447.29 L 151.76 448.10 L 151.38 448.91 L 151.00 449.72 L 150.63 450.54 L 150.27 451.36 L 149.91 452.18 L 149.55 453.00 L 149.21 453.83 L 148.87 454.66 L 148.53 455.49 L 148.21 456.33 L 147.88 457.17 L 147.57 458.01 L 147.26 458.85 L 146.95 459.70 L 146.66 460.55 L 146.36 461.40 L 146.08 462.25 L 145.80 463.11 L 145.53 463.97 L 145.26 464.83 L 145.00 465.69 L 144.75 466.55 L 144.50 467.42 L 144.26 468.29 L 144.03 469.16 L 143.80 470.03 L 143.58 470.91 L 143.36 471.78 L 143.15 472.66 L 142.95 473.54 L 142.76 474.42 L 142.57 475.31 L 142.38 476.19 L 142.21 477.08 L 142.04 477.96 L 141.88 478.85 L 141.72 479.74 L 141.57 480.63 L 141.43 481.53 L 141.29 482.42 L 141.17 483.32 L 141.04 484.21 L 140.93 485.11 L 140.82 486.01 L 140.72 486.90 L 140.62 487.80 L 140.53 488.70 L 140.45 489.61 L 140.38 490.51 L 140.31 491.41 L 140.25 492.31 L 140.19 493.22 L 140.14 494.12 L 140.10 495.02 L 140.07 495.93 L 140.04 496.83 L 140.02 497.74 L 140.01 498.64 L 140.00 499.55 L 140.00 500.45 L 140.01 501.36 L 140.02 502.26 L 140.04 503.17 L 140.07 504.07 L 140.10 504.98 L 140.14 505.88 L 140.19 506.78 L 140.25 507.69 L 140.31 508.59 L 140.38 509.49 L 140.45 510.39 L 140.53 511.30 L 140.62 512.20 L 140.72 513.10 L 140.82 513.99 L 140.93 514.89 L 141.04 515.79 L 141.17 516.68 L 141.29 517.58 L 141.43 518.47 L 141.57 519.37 L 141.72 520.26 L 141.88 521.15 L 142.04 522.04 L 142.21 522.92 L 142.38 523.81 L 142.57 524.69 L 142.76 525.58 L 142.95 526.46 L 143.15 527.34 L 143.36 528.22 L 143.58 529.09 L 143.80 529.97 L 144.03 530.84 L 144.26 531.71 L 144.50 532.58 L 144.75 533.45 L 145.00 534.31 L 145.26 535.17 L 145.53 536.03 L 145.80 536.89 L 146.08 537.75 L 146.36 538.60 L 146.66 539.45 L 146.95 540.30 L 147.26 541.15 L 147.57 541.99 L 147.88 542.83 L 148.21 543.67 L 148.53 544.51 L 148.87 545.34 L 149.21 546.17 L 149.55 547.00 L 149.91 547.82 L 150.27 548.64 L 150.63 549.46 L 151.00 550.28 L 151.38 551.09 L 151.76 551.90 L 152.14 552.71 L 152.54 553.51 L 152.94 554.31 L 153.34 555.11 L 153.75 555.91 L 154.17 556.70 L 154.59 557.48 L 155.01 558.27 L 155.45 559.05 L 155.88 559.83 L 156.33 560.60 L 156.77 561.37 L 157.23 562.14 L 157.69 562.90 L 158.15 563.66 L 158.62 564.41 L 159.10 565.17 L 159.58 565.91 L 160.06 566.66 L 160.55 567.40 L 161.05 568.14 L 161.55 568.87 L 162.05 569.60 L 162.56 570.32 L 163.07 571.04 L 163.59 571.76 L 164.12 572.47 L 164.65 573.18 L 165.18 573.89 L 165.72 574.59 L 166.26 575.29 L 166.81 575.98 L 167.36 576.67 L 167.92 577.35 L 168.48 578.03 L 169.05 578.71 L 169.61 579.38 L 170.19 580.04 L 170.77 580.71 L 171.35 581.36 L 171.94 582.02 L 172.53 582.67 L 173.12 583.31 L 173.72 583.95 L 174.32 584.59 L 174.93 585.22 L 175.54 585.85 L 176.16 586.47 L 176.78 587.09 L 177.40 587.70 L 178.02 588.31 L 178.65 588.91 L 179.29 589.51 L 179.93 590.11 L 180.57 590.70 L 181.21 591.28 L 181.86 591.86 L 182.51 592.44 L 183.16 593.01 L 183.82 593.57 L 184.48 594.14 L 185.15 594.69 L 185.81 595.25 L 186.49 595.79 L 187.16 596.34 L 187.84 596.87 L 188.52 597.41 L 189.20 597.94 L 189.89 598.46 L 190.58 598.98 L 191.27 599.49 L 191.96 600.00 L 192.66 600.50 L 193.36 601.00 L 194.06 601.50 L 194.77 601.99 L 195.48 602.47 L 196.19 602.95 L 196.90 603.43 L 197.62 603.90 L 198.33 604.36 L 199.05 604.82 L 199.78 605.28 L 200.50 605.73 L 201.23 606.17 L 201.96 606.62 L 202.69 607.05 L 203.43 607.48 L 204.16 607.91 L 204.90 608.33 L 205.64 608.75 L 206.38 609.16 L 207.13 609.56 L 207.87 609.97 L 208.62 610.36 L 209.37 610.75 L 210.12 611.14 L 210.88 611.52 L 211.63 611.90 L 212.39 612.27 L 213.15 612.64 L 213.91 613.00 L 214.67 613.36 L 215.43 613.71 L 216.20 614.06 L 216.96 614.41 L 217.73 614.74 L 218.50 615.08 L 219.27 615.41 L 220.04 615.73 L 220.81 616.05 L 221.59 616.36 L 222.36 616.67 L 223.14 616.98 L 223.92 617.28 L 224.70 617.58 L 225.48 617.87 L 226.26 618.15 L 227.04 618.43 L 227.82 618.71 L 228.60 618.98 L 229.39 619.25 L 230.17 619.51 L 230.96 619.77 L 231.75 620.02 L 232.53 620.27 L 233.32 620.52 L 234.11 620.76 L 234.90 620.99 L 235.69 621.22 L 236.48 621.45 L 237.27 621.67 L 238.06 621.88 L 238.86 622.10 L 239.65 622.30 L 240.44 622.51 L 241.24 622.71 L 242.03 622.90 L 242.83 623.09 L 243.62 623.27 L 244.42 623.46 L 245.21 623.63 L 246.01 623.80 L 246.80 623.97 L 247.60 624.13 L 248.39 624.29 L 249.19 624.45 L 249.99 624.60 L 250.78 624.74 L 251.58 624.89 L 252.38 625.02 L 253.17 625.16 L 253.97 625.28 L 254.77 625.41 L 255.56 625.53 L 256.36 625.65 L 257.16 625.76 L 257.95 625.87 L 258.75 625.97 L 259.54 626.07 L 260.34 626.17 L 261.13 626.26 L 261.93 626.34 L 262.72 626.43 L 263.52 626.51 L 264.31 626.58 L 265.11 626.65 L 265.90 626.72 L 266.69 626.78 L 267.49 626.84 L 268.28 626.90 L 269.07 626.95 L 269.86 627.00 L 270.65 627.04 L 271.44 627.08 L 272.23 627.12 L 273.02 627.15 L 273.81 627.18 L 274.60 627.21 L 275.39 627.23 L 276.17 627.25 L 276.96 627.26 L 277.75 627.27 L 278.53 627.28 L 279.32 627.28 L 280.10 627.28 L 280.88 627.27 L 281.66 627.27 L 282.45 627.25 L 283.23 627.24 L 284.01 627.22 L 284.79 627.20 L 285.56 627.17 L 286.34 627.14 L 287.12 627.11 L 287.90 627.08 L 288.67 627.04 L 289.44 626.99 L 290.22 626.95 L 290.99 626.90 L 291.76 626.85 L 292.53 626.79 L 293.30 626.73 L 294.07 626.67 L 294.84 626.60 L 295.61 626.53 L 296.37 626.46 L 297.14 626.38 L 297.90 626.30 L 298.66 626.22 L 299.42 626.14 L 300.19 626.05 L 300.95 625.96 L 301.70 625.86 L 302.46 625.77 L 303.22 625.67 L 303.97 625.56 L 304.73 625.46 L 305.48 625.35 L 306.23 625.23 L 306.98 625.12 L 307.73 625.00 L 308.48 624.88 L 309.23 624.75 L 309.98 624.63 L 310.72 624.50 L 311.47 624.36 L 312.21 624.23 L 312.95 624.09 L 313.69 623.95 L 314.43 623.81 L 315.17 623.66 L 315.91 623.51 L 316.64 623.36 L 317.38 623.20 L 318.11 623.04 L 318.84 622.88 L 319.57 622.72 L 320.30 622.56 L 321.03 622.39 L 321.76 622.22 L 322.48 622.04 L 323.21 621.87 L 323.93 621.69 L 324.65 621.51 L 325.37 621.33 L 326.09 621.14 L 326.81 620.95 L 327.53 620.76 L 328.24 620.57 L 328.96 620.37 L 329.67 620.18 L 330.38 619.97 L 331.09 619.77 L 331.80 619.57 L 332.51 619.36 L 333.22 619.15 L 333.92 618.94 L 334.63 618.72 L 335.33 618.51 L 336.03 618.29 L 336.73 618.07 L 337.43 617.85 L 338.12 617.62 L 338.82 617.39 L 339.51 617.16 L 340.21 616.93 L 340.90 616.70 L 341.59 616.46 L 342.28 616.22 L 342.97 615.98 L 343.65 615.74 L 344.34 615.50 L 345.02 615.25 L 345.70 615.00 L 346.38 614.75 L 347.06 614.50 L 347.74 614.24 L 348.42 613.99 L 349.09 613.73 L 349.77 613.47 L 350.44 613.21 L 351.11 612.94 L 351.78 612.68 L 352.45 612.41 L 353.12 612.14 L 353.78 611.87 L 354.45 611.60 L 355.11 611.32 L 355.77 611.04 L 356.43 610.77 L 357.09 610.49 L 357.75 610.20 L 358.41 609.92 L 359.06 609.63 L 359.72 609.35 L 360.37 609.06 L 361.02 608.77 L 361.67 608.47 L 362.32 608.18 L 362.97 607.89 L 363.61 607.59 L 364.26 607.29 L 364.90 606.99 L 365.54 606.69 L 366.18 606.38 L 366.82 606.08 L 367.46 605.77 L 368.09 605.46 L 368.73 605.15 L 369.36 604.84 L 370.00 604.53 L 370.63 604.21 L 371.26 603.90 L 371.89 603.58 L 372.51 603.26 L 373.14 602.94 L 373.76 602.62 L 374.39 602.30 L 375.01 601.97 L 375.63 601.65 L 376.25 601.32 L 376.87 600.99 L 377.48 600.66 L 378.10 600.33 L 378.71 600.00 L 379.33 599.66 L 379.94 599.33 L 380.55 598.99 L 381.16 598.65 L 381.77 598.31 L 382.37 597.97 L 382.98 597.63 L 383.58 597.29 L 384.19 596.94 L 384.79 596.60 L 385.39 596.25 L 385.99 595.90 L 386.59 595.55 L 387.18 595.20 L 387.78 594.85 L 388.37 594.50 L 388.97 594.15 L 389.56 593.79 L 390.15 593.43 L 390.74 593.08 L 391.33 592.72 L 391.91 592.36 L 392.50 592.00 L 393.08 591.64 L 393.67 591.28 L 394.25 590.91 L 394.83 590.55 L 395.41 590.18 L 395.99 589.81 L 396.57 589.45 L 397.14 589.08 L 397.72 588.71 L 398.29 588.34 L 398.87 587.96 L 399.44 587.59 L 400.01 587.22 L 400.58 586.84 L 401.15 586.47 L 401.71 586.09 L 402.28 585.71 L 402.84 585.33 L 403.41 584.95 L 403.97 584.57 L 404.53 584.19 L 405.09 583.81 L 405.65 583.43 L 406.21 583.04 L 406.77 582.66 L 407.33 582.27 L 407.88 581.88 L 408.44 581.50 L 408.99 581.11 L 409.54 580.72 L 410.09 580.33 L 410.64 579.94 L 411.19 579.55 L 411.74 579.15 L 412.29 578.76 L 412.83 578.37 L 413.38 577.97 L 413.92 577.58 L 414.46 577.18 L 415.01 576.78 L 415.55 576.39 L 416.09 575.99 L 416.63 575.59 L 417.16 575.19 L 417.70 574.79 L 418.24 574.39 L 418.77 573.98 L 419.31 573.58 L 419.84 573.18 L 420.37 572.77 L 420.90 572.37 L 421.43 571.96 L 421.96 571.56 L 422.49 571.15 L 423.02 570.74 L 423.54 570.33 L 424.07 569.92 L 424.60 569.51 L 425.12 569.10 L 425.64 568.69 L 426.16 568.28 L 426.69 567.87 L 427.21 567.46 L 427.72 567.04 L 428.24 566.63 L 428.76 566.22 L 429.28 565.80 L 429.79 565.39 L 430.31 564.97 L 430.82 564.55 L 431.34 564.14 L 431.85 563.72 L 432.36 563.30 L 432.87 562.88 L 433.38 562.46 L 433.89 562.04 L 434.40 561.62 L 434.91 561.20 L 435.41 560.78 L 435.92 560.36 L 436.43 559.93 L 436.93 559.51 L 437.43 559.09 L 437.94 558.66 L 438.44 558.24 L 438.94 557.81 L 439.44 557.39 L 439.94 556.96 L 440.44 556.54 L 440.94 556.11 L 441.44 555.68 L 441.94 555.25 L 442.43 554.83 L 442.93 554.40 L 443.42 553.97 L 443.92 553.54 L 444.41 553.11 L 444.90 552.68 L 445.40 552.25 L 445.89 551.82 L 446.38 551.39 L 446.87 550.95 L 447.36 550.52 L 447.85 550.09 L 448.34 549.66 L 448.82 549.22 L 449.31 548.79 L 449.80 548.35 L 450.28 547.92 L 450.77 547.48 L 451.25 547.05 L 451.74 546.61 L 452.22 546.18 L 452.70 545.74 L 453.19 545.31 L 453.67 544.87 L 454.15 544.43 L 454.63 543.99 L 455.11 543.56 L 455.59 543.12 L 456.07 542.68 L 456.55 542.24 L 457.02 541.80 L 457.50 541.36 L 457.98 540.92 L 458.45 540.48 L 458.93 540.04 L 459.40 539.60 L 459.88 539.16 L 460.35 538.72 L 460.83 538.28 L 461.30 537.83 L 461.77 537.39 L 462.24 536.95 L 462.72 536.51 L 463.19 536.07 L 463.66 535.62 L 464.13 535.18 L 464.60 534.74 L 465.07 534.29 L 465.54 533.85 L 466.01 533.40 L 466.47 532.96 L 466.94 532.51 L 467.41 532.07 L 467.88 531.62 L 468.34 531.18 L 468.81 530.73 L 469.27 530.29 L 469.74 529.84 L 470.20 529.40 L 470.67 528.95 L 471.13 528.50 L 471.60 528.06 L 472.06 527.61 L 472.52 527.16 L 472.99 526.71 L 473.45 526.27 L 473.91 525.82 L 474.37 525.37 L 474.83 524.92 L 475.30 524.47 L 475.76 524.03 L 476.22 523.58 L 476.68 523.13 L 477.14 522.68 L 477.60 522.23 L 478.06 521.78 L 478.52 521.33 L 478.97 520.88 L 479.43 520.43 L 479.89 519.98 L 480.35 519.53 L 480.81 519.08 L 481.26 518.63 L 481.72 518.18 L 482.18 517.73 L 482.64 517.28 L 483.09 516.83 L 483.55 516.38 L 484.01 515.93 L 484.46 515.48 L 484.92 515.03 L 485.37 514.58 L 485.83 514.13 L 486.28 513.68 L 486.74 513.23 L 487.19 512.77 L 487.65 512.32 L 488.10 511.87 L 488.56 511.42 L 489.01 510.97 L 489.47 510.52 L 489.92 510.06 L 490.37 509.61 L 490.83 509.16 L 491.28 508.71 L 491.73 508.26 L 492.19 507.80 L 492.64 507.35 L 493.09 506.90 L 493.55 506.45 L 494.00 506.00 L 494.45 505.54 L 494.91 505.09 L 495.36 504.64 L 495.81 504.19 L 496.27 503.73 L 496.72 503.28 L 497.17 502.83 L 497.62 502.38 L 498.08 501.92 L 498.53 501.47 L 498.98 501.02 L 499.43 500.57 L 499.89 500.11 L 500.34 499.66 L 500.79 499.21 L 501.24 498.76 L 501.70 498.30 L 502.15 497.85 L 502.60 497.40 L 503.06 496.95 L 503.51 496.49 L 503.96 496.04 L 504.41 495.59 L 504.87 495.14 L 505.32 494.68 L 505.77 494.23 L 506.23 493.78 L 506.68 493.33 L 507.13 492.87 L 507.59 492.42 L 508.04 491.97 L 508.49 491.52 L 508.95 491.07 L 509.40 490.61 L 509.85 490.16 L 510.31 489.71 L 510.76 489.26 L 511.22 488.81 L 511.67 488.35 L 512.12 487.90 L 512.58 487.45 L 513.03 487.00 L 513.49 486.55 L 513.94 486.10 L 514.40 485.65 L 514.86 485.20 L 515.31 484.74 L 515.77 484.29 L 516.22 483.84 L 516.68 483.39 L 517.14 482.94 L 517.59 482.49 L 518.05 482.04 L 518.51 481.59 L 518.96 481.14 L 519.42 480.69 L 519.88 480.24 L 520.34 479.79 L 520.80 479.34 L 521.26 478.89 L 521.71 478.44 L 522.17 477.99 L 522.63 477.54 L 523.09 477.10 L 523.55 476.65 L 524.01 476.20 L 524.47 475.75 L 524.93 475.30 L 525.40 474.85 L 525.86 474.41 L 526.32 473.96 L 526.78 473.51 L 527.24 473.06 L 527.71 472.62 L 528.17 472.17 L 528.63 471.72 L 529.10 471.27 L 529.56 470.83 L 530.03 470.38 L 530.49 469.94 L 530.96 469.49 L 531.42 469.04 L 531.89 468.60 L 532.36 468.15 L 532.82 467.71 L 533.29 467.26 L 533.76 466.82 L 534.23 466.37 L 534.70 465.93 L 535.17 465.49 L 535.64 465.04 L 536.11 464.60 L 536.58 464.16 L 537.05 463.71 L 537.52 463.27 L 537.99 462.83 L 538.46 462.39 L 538.94 461.94 L 539.41 461.50 L 539.88 461.06 L 540.36 460.62 L 540.83 460.18 L 541.31 459.74 L 541.78 459.30 L 542.26 458.86 L 542.74 458.42 L 543.22 457.98 L 543.69 457.54 L 544.17 457.10 L 544.65 456.66 L 545.13 456.23 L 545.61 455.79 L 546.09 455.35 L 546.57 454.91 L 547.05 454.48 L 547.54 454.04 L 548.02 453.60 L 548.50 453.17 L 548.99 452.73 L 549.47 452.30 L 549.96 451.86 L 550.45 451.43 L 550.93 450.99 L 551.42 450.56 L 551.91 450.13 L 552.40 449.70 L 552.89 449.26 L 553.38 448.83 L 553.87 448.40 L 554.36 447.97 L 554.85 447.54 L 555.34 447.11 L 555.84 446.68 L 556.33 446.25 L 556.82 445.82 L 557.32 445.39 L 557.82 444.96 L 558.31 444.53 L 558.81 444.10 L 559.31 443.68 L 559.81 443.25 L 560.31 442.83 L 560.81 442.40 L 561.31 441.97 L 561.81 441.55 L 562.31 441.13 L 562.82 440.70 L 563.32 440.28 L 563.83 439.86 L 564.33 439.43 L 564.84 439.01 L 565.35 438.59 L 565.85 438.17 L 566.36 437.75 L 566.87 437.33 L 567.38 436.91 L 567.89 436.49 L 568.41 436.07 L 568.92 435.66 L 569.43 435.24 L 569.95 434.82 L 570.46 434.41 L 570.98 433.99 L 571.50 433.58 L 572.02 433.16 L 572.53 432.75 L 573.05 432.34 L 573.58 431.92 L 574.10 431.51 L 574.62 431.10 L 575.14 430.69 L 575.67 430.28 L 576.19 429.87 L 576.72 429.46 L 577.25 429.05 L 577.77 428.65 L 578.30 428.24 L 578.83 427.83 L 579.36 427.43 L 579.89 427.03 L 580.43 426.62 L 580.96 426.22 L 581.50 425.82 L 582.03 425.41 L 582.57 425.01 L 583.10 424.61 L 583.64 424.21 L 584.18 423.81 L 584.72 423.41 L 585.26 423.02 L 585.81 422.62 L 586.35 422.22 L 586.89 421.83 L 587.44 421.44 L 587.99 421.04 L 588.53 420.65 L 589.08 420.26 L 589.63 419.87 L 590.18 419.47 L 590.73 419.09 L 591.29 418.70 L 591.84 418.31 L 592.40 417.92 L 592.95 417.54 L 593.51 417.15 L 594.07 416.77 L 594.63 416.38 L 595.19 416.00 L 595.75 415.62 L 596.31 415.24 L 596.87 414.86 L 597.44 414.48 L 598.00 414.10 L 598.57 413.72 L 599.14 413.35 L 599.71 412.97 L 600.28 412.60 L 600.85 412.22 L 601.42 411.85 L 601.99 411.48 L 602.57 411.11 L 603.15 410.74 L 603.72 410.37 L 604.30 410.00 L 604.88 409.64 L 605.46 409.27 L 606.04 408.91 L 606.63 408.54 L 607.21 408.18 L 607.79 407.82 L 608.38 407.46 L 608.97 407.10 L 609.56 406.74 L 610.15 406.39 L 610.74 406.03 L 611.33 405.68 L 611.93 405.32 L 612.52 404.97 L 613.12 404.62 L 613.71 404.27 L 614.31 403.92 L 614.91 403.58 L 615.51 403.23 L 616.12 402.88 L 616.72 402.54 L 617.32 402.20 L 617.93 401.86 L 618.54 401.52 L 619.15 401.18 L 619.76 400.84 L 620.37 400.51 L 620.98 400.17 L 621.59 399.84 L 622.21 399.51 L 622.82 399.17 L 623.44 398.85 L 624.06 398.52 L 624.68 398.19 L 625.30 397.87 L 625.92 397.54 L 626.55 397.22 L 627.17 396.90 L 627.80 396.58 L 628.43 396.26 L 629.06 395.94 L 629.69 395.63 L 630.32 395.32 L 630.95 395.00 L 631.59 394.69 L 632.22 394.38 L 632.86 394.08 L 633.50 393.77 L 634.14 393.47 L 634.78 393.16 L 635.42 392.86 L 636.07 392.56 L 636.71 392.26 L 637.36 391.97 L 638.01 391.67 L 638.65 391.38 L 639.30 391.09 L 639.96 390.80 L 640.61 390.51 L 641.26 390.22 L 641.92 389.94 L 642.58 389.65 L 643.24 389.37 L 643.90 389.09 L 644.56 388.82 L 645.22 388.54 L 645.88 388.27 L 646.55 387.99 L 647.22 387.72 L 647.88 387.46 L 648.55 387.19 L 649.22 386.92 L 649.90 386.66 L 650.57 386.40 L 651.24 386.14 L 651.92 385.88 L 652.60 385.63 L 653.28 385.37 L 653.96 385.12 L 654.64 384.87 L 655.32 384.63 L 656.01 384.38 L 656.69 384.14 L 657.38 383.90 L 658.07 383.66 L 658.76 383.42 L 659.45 383.19 L 660.14 382.95 L 660.83 382.72 L 661.53 382.49 L 662.22 382.27 L 662.92 382.04 L 663.62 381.82 L 664.32 381.60 L 665.02 381.38 L 665.73 381.17 L 666.43 380.96 L 667.14 380.74 L 667.84 380.54 L 668.55 380.33 L 669.26 380.13 L 669.97 379.92 L 670.68 379.73 L 671.40 379.53 L 672.11 379.33 L 672.83 379.14 L 673.55 378.95 L 674.27 378.77 L 674.99 378.58 L 675.71 378.40 L 676.43 378.22 L 677.15 378.04 L 677.88 377.87 L 678.61 377.70 L 679.33 377.53 L 680.06 377.36 L 680.79 377.20 L 681.52 377.04 L 682.26 376.88 L 682.99 376.72 L 683.73 376.57 L 684.46 376.42 L 685.20 376.27 L 685.94 376.12 L 686.68 375.98 L 687.42 375.84 L 688.16 375.70 L 688.91 375.57 L 689.65 375.44 L 690.40 375.31 L 691.14 375.18 L 691.89 375.06 L 692.64 374.94 L 693.39 374.82 L 694.14 374.71 L 694.90 374.60 L 695.65 374.49 L 696.40 374.39 L 697.16 374.28 L 697.92 374.18 L 698.68 374.09 L 699.43 374.00 L 700.19 373.91 L 700.96 373.82 L 701.72 373.74 L 702.48 373.66 L 703.25 373.58 L 704.01 373.50 L 704.78 373.43 L 705.54 373.37 L 706.31 373.30 L 707.08 373.24 L 707.85 373.18 L 708.62 373.13 L 709.40 373.08 L 710.17 373.03 L 710.94 372.98 L 711.72 372.94 L 712.49 372.91 L 713.27 372.87 L 714.05 372.84 L 714.82 372.81 L 715.60 372.79 L 716.38 372.77 L 717.16 372.75 L 717.94 372.74 L 718.73 372.73 L 719.51 372.72 L 720.29 372.72 L 721.08 372.72 L 721.86 372.73 L 722.65 372.73 L 723.43 372.75 L 724.22 372.76 L 725.01 372.78 L 725.79 372.81 L 726.58 372.83 L 727.37 372.86 L 728.16 372.90 L 728.95 372.94 L 729.74 372.98 L 730.53 373.02 L 731.33 373.07 L 732.12 373.13 L 732.91 373.18 L 733.70 373.25 L 734.50 373.31 L 735.29 373.38 L 736.08 373.45 L 736.88 373.53 L 737.67 373.61 L 738.47 373.70 L 739.26 373.79 L 740.06 373.88 L 740.85 373.98 L 741.65 374.08 L 742.45 374.19 L 743.24 374.30 L 744.04 374.41 L 744.84 374.53 L 745.63 374.65 L 746.43 374.78 L 747.22 374.91 L 748.02 375.05 L 748.82 375.18 L 749.61 375.33 L 750.41 375.48 L 751.21 375.63 L 752.00 375.79 L 752.80 375.95 L 753.60 376.11 L 754.39 376.28 L 755.19 376.46 L 755.98 376.63 L 756.78 376.82 L 757.57 377.00 L 758.37 377.20 L 759.16 377.39 L 759.95 377.59 L 760.75 377.80 L 761.54 378.01 L 762.33 378.22 L 763.12 378.44 L 763.91 378.67 L 764.70 378.89 L 765.49 379.13 L 766.28 379.36 L 767.07 379.61 L 767.86 379.85 L 768.65 380.10 L 769.43 380.36 L 770.22 380.62 L 771.00 380.88 L 771.79 381.15 L 772.57 381.43 L 773.35 381.71 L 774.13 381.99 L 774.91 382.28 L 775.69 382.57 L 776.47 382.87 L 777.25 383.17 L 778.02 383.48 L 778.80 383.79 L 779.57 384.11 L 780.34 384.43 L 781.12 384.76 L 781.88 385.09 L 782.65 385.42 L 783.42 385.77 L 784.18 386.11 L 784.95 386.46 L 785.71 386.82 L 786.47 387.18 L 787.23 387.54 L 787.99 387.91 L 788.74 388.29 L 789.50 388.67 L 790.25 389.05 L 791.00 389.44 L 791.75 389.84 L 792.50 390.23 L 793.24 390.64 L 793.99 391.05 L 794.73 391.46 L 795.47 391.88 L 796.21 392.30 L 796.94 392.73 L 797.67 393.17 L 798.40 393.60 L 799.13 394.05 L 799.86 394.50 L 800.58 394.95 L 801.31 395.41 L 802.03 395.87 L 802.74 396.34 L 803.46 396.81 L 804.17 397.29 L 804.88 397.77 L 805.58 398.26 L 806.29 398.75 L 806.99 399.25 L 807.69 399.75 L 808.39 400.25 L 809.08 400.76 L 809.77 401.28 L 810.46 401.80 L 811.14 402.33 L 811.82 402.86 L 812.50 403.39 L 813.18 403.93 L 813.85 404.48 L 814.52 405.03 L 815.19 405.58 L 815.85 406.14 L 816.51 406.71 L 817.16 407.28 L 817.82 407.85 L 818.47 408.43 L 819.11 409.01 L 819.75 409.60 L 820.39 410.19 L 821.03 410.79 L 821.66 411.39 L 822.29 412.00 L 822.91 412.61 L 823.53 413.22 L 824.15 413.84 L 824.76 414.47 L 825.37 415.10 L 825.98 415.73 L 826.58 416.37 L 827.18 417.01 L 827.77 417.66 L 828.36 418.31 L 828.94 418.96 L 829.52 419.62 L 830.10 420.29 L 830.67 420.96 L 831.24 421.63 L 831.80 422.31 L 832.36 422.99 L 832.91 423.68 L 833.46 424.37 L 834.01 425.06 L 834.55 425.76 L 835.09 426.46 L 835.62 427.17 L 836.14 427.88 L 836.67 428.60 L 837.18 429.32 L 837.70 430.04 L 838.20 430.77 L 838.71 431.50 L 839.20 432.23 L 839.70 432.97 L 840.18 433.71 L 840.66 434.46 L 841.14 435.21 L 841.61 435.96 L 842.08 436.72 L 842.54 437.48 L 843.00 438.25 L 843.45 439.01 L 843.90 439.79 L 844.34 440.56 L 844.77 441.34 L 845.20 442.12 L 845.62 442.91 L 846.04 443.70 L 846.46 444.49 L 846.86 445.29 L 847.26 446.09 L 847.66 446.89 L 848.05 447.69 L 848.43 448.50 L 848.81 449.31 L 849.19 450.13 L 849.55 450.95 L 849.91 451.77 L 850.27 452.59 L 850.62 453.42 L 850.96 454.24 L 851.30 455.08 L 851.63 455.91 L 851.96 456.75 L 852.28 457.59 L 852.59 458.43 L 852.90 459.28 L 853.20 460.12 L 853.49 460.97 L 853.78 461.83 L 854.06 462.68 L 854.34 463.54 L 854.61 464.40 L 854.87 465.26 L 855.13 466.12 L 855.38 466.99 L 855.62 467.86 L 855.86 468.72 L 856.09 469.60 L 856.31 470.47 L 856.53 471.35 L 856.74 472.22 L 856.95 473.10 L 857.15 473.98 L 857.34 474.86 L 857.53 475.75 L 857.70 476.63 L 857.88 477.52 L 858.04 478.41 L 858.20 479.30 L 858.35 480.19 L 858.50 481.08 L 858.64 481.97 L 858.77 482.87 L 858.90 483.76 L 859.02 484.66 L 859.13 485.56 L 859.23 486.46 L 859.33 487.35 L 859.42 488.25 L 859.51 489.15 L 859.59 490.06 L 859.66 490.96 L 859.72 491.86 L 859.78 492.76 L 859.83 493.67 L 859.88 494.57 L 859.91 495.48 L 859.95 496.38 L 859.97 497.28 L 859.99 498.19 L 860.00 499.09 L 860.00 500.00"
        fill="none" stroke="black" stroke-width="4" stroke-linecap="round" stroke-linejoin="round"/>
</svg>